<svg width="24" height="24" viewBox="0 0 24 24" xmlns="http://www.w3.org/2000/svg">
<path d="M19.43 12.98C19.33 12.8 19.19 12.63 19.01 12.49C19.01 12.49 19.01 12.48 19 12.48C19 12.48 19 12.47 19.01 12.46C19.19 12.32 19.33 12.15 19.43 11.97L21.24 9.01C21.31 8.92 21.35 8.82 21.35 8.71C21.35 8.6 21.31 8.49 21.23 8.41L18.99 6.17C18.89 6.07 18.76 6 18.61 6C18.46 6 18.33 6.07 18.23 6.17L16.2 8.2C16.02 8.01 15.78 7.86 15.5 7.74C15.5 7.74 15.49 7.74 15.49 7.74C15.49 7.74 15.49 7.73 15.48 7.74C15.2 7.86 14.96 8.01 14.78 8.2L12.74 6.17C12.64 6.07 12.51 6 12.36 6C12.21 6 12.08 6.07 11.98 6.17L9.76 8.4C9.68 8.48 9.64 8.59 9.64 8.7C9.64 8.81 9.68 8.91 9.76 9L11.57 11.97C11.67 12.15 11.81 12.32 11.99 12.46C11.99 12.47 11.99 12.48 12 12.48C12 12.48 12 12.49 12.01 12.49C11.83 12.63 11.69 12.8 11.59 12.98L9.76 15.95C9.68 16.03 9.64 16.14 9.64 16.25C9.64 16.36 9.68 16.47 9.76 16.55L12 18.79C12.1 18.89 12.23 18.96 12.38 18.96C12.53 18.96 12.66 18.89 12.76 18.79L14.79 16.76C14.97 16.94 15.21 17.09 15.49 17.2C15.49 17.2 15.5 17.2 15.5 17.2C15.5 17.2 15.5 17.21 15.51 17.2C15.79 17.08 16.03 16.93 16.21 16.74L18.24 18.79C18.34 18.89 18.47 18.96 18.62 18.96C18.77 18.96 18.9 18.89 19 18.79L21.24 16.55C21.32 16.47 21.36 16.36 21.36 16.25C21.36 16.14 21.32 16.03 21.24 15.95L19.43 12.98ZM12.37 16.5C10.84 16.5 9.5 15.16 9.5 13.63C9.5 12.1 10.84 10.77 12.37 10.77C13.89 10.77 15.23 12.1 15.23 13.63C15.23 15.16 13.89 16.5 12.37 16.5Z" fill="black"/>
</svg>
